SplineFontDB: 3.2
FontName: TangibleIcons
FullName: TangibleIcons
FamilyName: TangibleIcons
Weight: Regular
Copyright: Copyright (c) 2022, Unknown
UComments: "2022-8-14: Created with FontForge (http://fontforge.org)"
Version: 001.000
ItalicAngle: 0
UnderlinePosition: -100
UnderlineWidth: 50
Ascent: 800
Descent: 200
InvalidEm: 0
LayerCount: 2
Layer: 0 0 "Back" 1
Layer: 1 0 "Fore" 0
XUID: [1021 571 1252177074 8441039]
StyleMap: 0x0000
FSType: 0
OS2Version: 0
OS2_WeightWidthSlopeOnly: 0
OS2_UseTypoMetrics: 1
CreationTime: 1660463441
ModificationTime: 1670854918
OS2TypoAscent: 0
OS2TypoAOffset: 1
OS2TypoDescent: 0
OS2TypoDOffset: 1
OS2TypoLinegap: 90
OS2WinAscent: 0
OS2WinAOffset: 1
OS2WinDescent: 0
OS2WinDOffset: 1
HheadAscent: 0
HheadAOffset: 1
HheadDescent: 0
HheadDOffset: 1
OS2Vendor: 'PfEd'
MarkAttachClasses: 1
DEI: 91125
Encoding: ISO8859-1
UnicodeInterp: none
NameList: AGL For New Fonts
DisplaySize: -48
AntiAlias: 1
FitToEm: 0
WinInfo: 114 19 8
BeginPrivate: 1
BlueValues 15 [-20 0 600 600]
EndPrivate
BeginChars: 256 56

StartChar: Agrave
Encoding: 192 192 0
Width: 1000
Flags: H
LayerCount: 2
Fore
SplineSet
300 700 m 6
 700 700 l 6
 755 700 800 655 800 600 c 6
 800 550 l 5
 900 550 l 5
 900 450 l 5
 800 450 l 5
 800 350 l 5
 900 350 l 5
 900 250 l 5
 800 250 l 5
 800 150 l 5
 900 150 l 5
 900 50 l 5
 800 50 l 5
 800 0 l 6
 800 -55 755 -100 700 -100 c 6
 300 -100 l 6
 245 -100 200 -55 200 0 c 6
 200 50 l 5
 100 50 l 5
 100 150 l 5
 200 150 l 5
 200 250 l 5
 100 250 l 5
 100 350 l 5
 200 350 l 5
 200 450 l 5
 100 450 l 5
 100 550 l 5
 200 550 l 5
 200 600 l 6
 200 655 245 700 300 700 c 6
EndSplineSet
Validated: 1
EndChar

StartChar: Aacute
Encoding: 193 193 1
Width: 1000
Flags: H
LayerCount: 2
Fore
SplineSet
550 700 m 5
 650 700 l 5
 650 600 l 5
 700 600 l 6
 755 600 800 555 800 500 c 6
 800 450 l 5
 900 450 l 5
 900 350 l 5
 800 350 l 5
 800 250 l 5
 900 250 l 5
 900 150 l 5
 800 150 l 5
 800 100 l 6
 800 45 755 0 700 0 c 6
 650 0 l 5
 650 -100 l 5
 550 -100 l 5
 550 0 l 5
 450 0 l 5
 450 -100 l 5
 350 -100 l 5
 350 0 l 5
 300 0 l 6
 245 0 200 45 200 100 c 6
 200 150 l 5
 100 150 l 5
 100 250 l 5
 200 250 l 5
 200 350 l 5
 100 350 l 5
 100 450 l 5
 200 450 l 5
 200 500 l 6
 200 555 245 600 300 600 c 6
 350 600 l 5
 350 700 l 5
 450 700 l 5
 450 600 l 5
 550 600 l 5
 550 700 l 5
441 400 m 6
 559 400 l 6
 582 400 600 382 600 359 c 6
 600 241 l 6
 600 218 582 200 559 200 c 6
 441 200 l 6
 418 200 400 218 400 241 c 6
 400 359 l 6
 400 382 418 400 441 400 c 6
400 500 m 6
 345 500 300 455 300 400 c 6
 300 200 l 6
 300 145 345 100 400 100 c 6
 600 100 l 6
 655 100 700 145 700 200 c 6
 700 400 l 6
 700 455 655 500 600 500 c 6
 400 500 l 6
EndSplineSet
Validated: 1
EndChar

StartChar: Acircumflex
Encoding: 194 194 2
Width: 1000
Flags: H
LayerCount: 2
Fore
SplineSet
500 600 m 4
 390 600 300 510 300 400 c 4
 300 290 390 200 500 200 c 4
 503 200 505 200 508 200 c 5
 483 353 l 5
 464 360 450 378 450 400 c 4
 450 428 472 450 500 450 c 4
 528 450 550 428 550 400 c 4
 550 389 546 378 540 370 c 5
 609 232 l 5
 664 268 700 330 700 400 c 4
 700 510 610 600 500 600 c 4
300 700 m 6
 700 700 l 6
 755 700 800 655 800 600 c 6
 800 0 l 6
 800 -55 755 -100 700 -100 c 6
 300 -100 l 6
 245 -100 200 -55 200 0 c 6
 200 600 l 6
 200 655 245 700 300 700 c 6
EndSplineSet
Validated: 1
EndChar

StartChar: Atilde
Encoding: 195 195 3
Width: 1000
Flags: H
LayerCount: 2
Fore
SplineSet
550 650 m 2
 550 275 l 2
 550 247 528 225 500 225 c 0
 472 225 450 247 450 275 c 2
 450 650 l 2
 450 678 472 700 500 700 c 0
 528 700 550 678 550 650 c 2
500 -100 m 0
 293 -100 125 68 125 275 c 0
 125 405 191 520 292 587 c 0
 301 593 310 595 319 595 c 0
 345 595 369 574 369 545 c 0
 369 528 360 513 347 504 c 0
 273 455 225 370 225 275 c 0
 225 123 348 0 500 0 c 0
 657 0 775 129 775 275 c 0
 775 370 727 455 653 504 c 0
 640 513 631 528 631 545 c 0
 631 574 655 595 681 595 c 0
 690 595 699 593 708 587 c 0
 809 520 875 405 875 275 c 0
 875 74 712 -100 500 -100 c 0
EndSplineSet
Validated: 1
EndChar

StartChar: Egrave
Encoding: 200 200 4
Width: 1000
Flags: H
LayerCount: 2
Fore
SplineSet
597 446 m 0
 649 411 675 355 675 300 c 0
 675 245 649 189 597 154 c 0
 588 148 579 146 570 146 c 0
 544 146 519 167 519 196 c 0
 519 213 529 229 542 238 c 0
 564 253 575 276 575 300 c 0
 575 324 564 347 542 362 c 0
 529 371 519 387 519 404 c 0
 519 433 544 454 570 454 c 0
 579 454 588 452 597 446 c 0
722 633 m 0
 829 561 900 439 900 300 c 0
 900 161 829 39 722 -33 c 0
 713 -39 704 -41 695 -41 c 0
 669 -41 644 -20 644 9 c 0
 644 26 654 42 667 51 c 0
 756 110 800 205 800 300 c 0
 800 395 756 490 667 549 c 0
 654 558 644 574 644 591 c 0
 644 620 669 641 695 641 c 0
 704 641 713 639 722 633 c 0
250 100 m 1
 200 100 l 2
 145 100 100 145 100 200 c 2
 100 400 l 2
 100 455 145 500 200 500 c 2
 250 500 l 1
 450 700 l 1
 450 -100 l 1
 250 100 l 1
EndSplineSet
Validated: 1
EndChar

StartChar: Eacute
Encoding: 201 201 5
Width: 1000
Flags: H
LayerCount: 2
Fore
SplineSet
540 210 m 2
 629 300 l 1
 540 390 l 2
 531 399 525 411 525 425 c 0
 525 455 550 475 576 475 c 0
 588 475 600 470 610 460 c 2
 700 371 l 1
 790 460 l 2
 799 469 811 475 825 475 c 0
 855 475 875 450 875 424 c 0
 875 412 870 400 860 390 c 2
 771 300 l 1
 860 210 l 2
 869 201 875 189 875 175 c 0
 875 145 850 125 824 125 c 0
 812 125 800 130 790 140 c 2
 700 229 l 1
 610 140 l 2
 601 131 589 125 575 125 c 0
 545 125 525 150 525 176 c 0
 525 188 530 200 540 210 c 2
250 100 m 1
 200 100 l 2
 145 100 100 145 100 200 c 2
 100 400 l 2
 100 455 145 500 200 500 c 2
 250 500 l 1
 450 700 l 1
 450 -100 l 1
 250 100 l 1
EndSplineSet
Validated: 1
EndChar

StartChar: Ecircumflex
Encoding: 202 202 6
Width: 1000
Flags: H
LayerCount: 2
Fore
SplineSet
500 625 m 4
 576 625 652 605 719 567 c 4
 831 503 900 392 900 274 c 4
 900 251 897 228 892 205 c 4
 887 185 871 170 850 167 c 5
 850 75 l 6
 850 20 805 -25 750 -25 c 6
 700 -25 l 5
 700 325 l 5
 750 325 l 6
 767 325 783 320 797 313 c 5
 785 379 741 440 670 481 c 4
 619 510 559 524 500 524 c 4
 441 524 381 510 330 481 c 4
 259 440 215 379 203 313 c 5
 217 320 233 325 250 325 c 6
 300 325 l 5
 300 -25 l 5
 250 -25 l 6
 195 -25 150 20 150 75 c 6
 150 167 l 5
 129 170 113 185 108 205 c 4
 103 228 100 251 100 274 c 4
 100 392 169 503 281 567 c 4
 348 605 424 625 500 625 c 4
EndSplineSet
Validated: 1
EndChar

StartChar: Adieresis
Encoding: 196 196 7
Width: 1000
Flags: H
LayerCount: 2
Fore
SplineSet
687 548 m 4
 691 549 696 550 700 550 c 4
 714 550 726 544 735 535 c 4
 744 526 750 514 750 500 c 4
 750 486 744 474 735 465 c 6
 571 300 l 5
 735 135 l 6
 744 126 750 114 750 100 c 4
 750 86 744 74 735 65 c 4
 726 56 714 50 700 50 c 4
 686 50 674 56 665 65 c 6
 500 229 l 5
 335 65 l 6
 326 56 314 50 300 50 c 4
 286 50 274 56 265 65 c 4
 256 74 250 86 250 100 c 4
 250 114 256 126 265 135 c 6
 429 300 l 5
 265 465 l 6
 256 474 250 486 250 500 c 4
 250 514 256 526 265 535 c 4
 271 541 278 546 287 548 c 4
 291 549 296 550 300 550 c 4
 314 550 326 544 335 535 c 6
 500 371 l 5
 665 535 l 6
 671 541 678 546 687 548 c 4
EndSplineSet
Validated: 1
EndChar

StartChar: Aring
Encoding: 197 197 8
Width: 1000
Flags: H
LayerCount: 2
Fore
SplineSet
235 485 m 2
 500 221 l 1
 765 485 l 2
 774 494 786 500 800 500 c 0
 830 500 849 476 849 450 c 0
 849 438 845 425 835 415 c 2
 500 79 l 1
 165 415 l 2
 156 424 150 436 150 450 c 0
 150 480 174 499 200 499 c 0
 212 499 225 495 235 485 c 2
EndSplineSet
Validated: 1
EndChar

StartChar: Ugrave
Encoding: 217 217 9
Width: 1400
Flags: HW
LayerCount: 2
Fore
SplineSet
250 500 m 6
 222 500 200 478 200 450 c 6
 200 150 l 6
 200 122 222 100 250 100 c 6
 1050 100 l 6
 1078 100 1100 122 1100 150 c 6
 1100 450 l 6
 1100 478 1078 500 1050 500 c 6
 250 500 l 6
200 600 m 6
 1100 600 l 6
 1155 600 1200 555 1200 500 c 6
 1200 450 l 5
 1300 450 l 5
 1300 150 l 5
 1200 150 l 5
 1200 100 l 6
 1200 45 1155 0 1100 0 c 6
 200 0 l 6
 145 0 100 45 100 100 c 6
 100 500 l 6
 100 555 145 600 200 600 c 6
EndSplineSet
Validated: 1
EndChar

StartChar: Uacute
Encoding: 218 218 10
Width: 1400
Flags: HW
LayerCount: 2
Fore
SplineSet
200 600 m 6
 1100 600 l 6
 1155 600 1200 555 1200 500 c 6
 1200 450 l 5
 1300 450 l 5
 1300 150 l 5
 1200 150 l 5
 1200 100 l 6
 1200 45 1155 0 1100 0 c 6
 200 0 l 6
 145 0 100 45 100 100 c 6
 100 500 l 6
 100 555 145 600 200 600 c 6
400 500 m 5
 400 100 l 5
 1050 100 l 6
 1078 100 1100 122 1100 150 c 6
 1100 450 l 6
 1100 478 1078 500 1050 500 c 6
 400 500 l 5
EndSplineSet
Validated: 1
EndChar

StartChar: Ucircumflex
Encoding: 219 219 11
Width: 1400
Flags: HW
LayerCount: 2
Fore
SplineSet
200 600 m 6
 1100 600 l 6
 1155 600 1200 555 1200 500 c 6
 1200 450 l 5
 1300 450 l 5
 1300 150 l 5
 1200 150 l 5
 1200 100 l 6
 1200 45 1155 0 1100 0 c 6
 200 0 l 6
 145 0 100 45 100 100 c 6
 100 500 l 6
 100 555 145 600 200 600 c 6
650 500 m 5
 650 100 l 5
 1050 100 l 6
 1078 100 1100 122 1100 150 c 6
 1100 450 l 6
 1100 478 1078 500 1050 500 c 6
 650 500 l 5
EndSplineSet
Validated: 1
EndChar

StartChar: Udieresis
Encoding: 220 220 12
Width: 1400
Flags: HW
LayerCount: 2
Fore
SplineSet
200 600 m 6
 1100 600 l 6
 1155 600 1200 555 1200 500 c 6
 1200 450 l 5
 1300 450 l 5
 1300 150 l 5
 1200 150 l 5
 1200 100 l 6
 1200 45 1155 0 1100 0 c 6
 200 0 l 6
 145 0 100 45 100 100 c 6
 100 500 l 6
 100 555 145 600 200 600 c 6
900 500 m 5
 900 100 l 5
 1050 100 l 6
 1078 100 1100 122 1100 150 c 6
 1100 450 l 6
 1100 478 1078 500 1050 500 c 6
 900 500 l 5
EndSplineSet
Validated: 1
EndChar

StartChar: Yacute
Encoding: 221 221 13
Width: 1400
Flags: HW
LayerCount: 2
Fore
SplineSet
200 600 m 6
 1100 600 l 6
 1155 600 1200 555 1200 500 c 6
 1200 450 l 5
 1300 450 l 5
 1300 150 l 5
 1200 150 l 5
 1200 100 l 6
 1200 45 1155 0 1100 0 c 6
 200 0 l 6
 145 0 100 45 100 100 c 6
 100 500 l 6
 100 555 145 600 200 600 c 6
EndSplineSet
Validated: 1
EndChar

StartChar: Thorn
Encoding: 222 222 14
Width: 1400
Flags: HW
LayerCount: 2
Fore
SplineSet
200 600 m 6
 1100 600 l 6
 1155 600 1200 555 1200 500 c 6
 1200 450 l 5
 1300 450 l 5
 1300 150 l 5
 1200 150 l 5
 1200 100 l 6
 1200 45 1155 0 1100 0 c 6
 200 0 l 6
 145 0 100 45 100 100 c 6
 100 500 l 6
 100 555 145 600 200 600 c 6
250 500 m 6
 222 500 200 478 200 450 c 6
 200 150 l 6
 200 122 222 100 250 100 c 6
 699 100 l 5
 300 300 l 5
 650 301 l 5
 600 499 l 5
 1000 300 l 5
 650 299 l 5
 700 100 l 5
 1050 100 l 6
 1078 100 1100 122 1100 150 c 6
 1100 450 l 6
 1100 478 1078 500 1050 500 c 6
 600 500 l 5
 250 500 l 6
EndSplineSet
Validated: 1
EndChar

StartChar: germandbls
Encoding: 223 223 15
Width: 1400
Flags: HW
LayerCount: 2
Fore
SplineSet
200 600 m 2
 1100 600 l 2
 1155 600 1200 555 1200 500 c 2
 1200 450 l 1
 1300 450 l 1
 1300 150 l 1
 1200 150 l 1
 1200 100 l 2
 1200 45 1155 0 1100 0 c 2
 200 0 l 2
 145 0 100 45 100 100 c 2
 100 500 l 2
 100 555 145 600 200 600 c 2
601 500 m 1
 1000 300 l 1
 650 299 l 1
 700 101 l 1
 400 249 l 1
 400 100 l 1
 700 100 l 1
 1050 100 l 2
 1078 100 1100 122 1100 150 c 2
 1100 450 l 2
 1100 478 1079 500 1051 500 c 2
 601 500 l 1
600 500 m 1
 400 500 l 1
 400 301 l 1
 650 300 l 1
 600 500 l 1
400 250 m 1
 400 300 l 1
 300 300 l 1
 400 250 l 1
EndSplineSet
Validated: 1
EndChar

StartChar: agrave
Encoding: 224 224 16
Width: 1400
Flags: HW
LayerCount: 2
Fore
SplineSet
200 600 m 2
 1100 600 l 2
 1155 600 1200 555 1200 500 c 2
 1200 450 l 1
 1300 450 l 1
 1300 150 l 1
 1200 150 l 1
 1200 100 l 2
 1200 45 1155 0 1100 0 c 2
 200 0 l 2
 145 0 100 45 100 100 c 2
 100 500 l 2
 100 555 145 600 200 600 c 2
701 100 m 1
 1050 100 l 2
 1078 100 1100 122 1100 150 c 2
 1100 450 l 2
 1100 478 1078 500 1050 500 c 2
 650 500 l 1
 650 476 l 1
 600 500 l 1
 650 301 l 1
 650 475 l 1
 1000 300 l 1
 651 300 l 1
 701 100 l 1
700 100 m 1
 650 124 l 1
 650 100 l 1
 700 100 l 1
650 125 m 1
 650 300 l 1
 300 300 l 1
 650 125 l 1
EndSplineSet
Validated: 1
EndChar

StartChar: aacute
Encoding: 225 225 17
Width: 1400
Flags: HW
LayerCount: 2
Fore
SplineSet
200 600 m 2
 1100 600 l 2
 1155 600 1200 555 1200 500 c 2
 1200 450 l 1
 1300 450 l 1
 1300 150 l 1
 1200 150 l 1
 1200 100 l 2
 1200 45 1155 0 1100 0 c 2
 200 0 l 2
 145 0 100 45 100 100 c 2
 100 500 l 2
 100 555 145 600 200 600 c 2
900 100 m 1
 1050 100 l 2
 1078 100 1100 122 1100 150 c 2
 1100 450 l 2
 1100 478 1078 500 1050 500 c 2
 900 501 l 1
 900 351 l 1
 600 500 l 1
 649 300 l 1
 299 300 l 1
 700 100 l 1
 650 300 l 1
 899 300 l 1
 899 350 l 1
 1000 300 l 5
 900 300 l 1
 900 100 l 1
EndSplineSet
Validated: 1
EndChar

StartChar: acircumflex
Encoding: 226 226 18
Width: 1400
Flags: HW
LayerCount: 2
Fore
SplineSet
200 600 m 2
 1100 600 l 2
 1155 600 1200 555 1200 500 c 2
 1200 450 l 1
 1300 450 l 1
 1300 150 l 1
 1200 150 l 1
 1200 100 l 2
 1200 45 1155 0 1100 0 c 2
 200 0 l 2
 145 0 100 45 100 100 c 2
 100 500 l 2
 100 555 145 600 200 600 c 2
700 100 m 1
 651 300 l 5
 1000 300 l 1
 600 500 l 1
 650 300 l 1
 300 300 l 1
 700 100 l 1
EndSplineSet
Validated: 1
EndChar

StartChar: ae
Encoding: 230 230 19
Width: 1000
Flags: H
LayerCount: 2
Fore
SplineSet
700 75 m 1
 600 75 l 1
 500 275 l 1
 400 75 l 1
 300 75 l 1
 450 375 l 1
 440 403 424 416 400 425 c 1
 400 525 l 1
 462 524 504 465 550 375 c 2
 700 75 l 1
250 600 m 2
 222 600 200 578 200 550 c 2
 200 50 l 2
 200 22 222 0 250 0 c 2
 750 0 l 2
 778 0 800 22 800 50 c 2
 800 550 l 2
 800 578 778 600 750 600 c 2
 250 600 l 2
200 700 m 2
 800 700 l 2
 855 700 900 655 900 600 c 2
 900 0 l 2
 900 -55 855 -100 800 -100 c 2
 200 -100 l 2
 145 -100 100 -55 100 0 c 2
 100 600 l 2
 100 655 145 700 200 700 c 2
EndSplineSet
Validated: 1
EndChar

StartChar: ccedilla
Encoding: 231 231 20
Width: 1000
Flags: H
LayerCount: 2
Fore
SplineSet
697 375 m 1
 699 351 700 325 700 300 c 1
 700 275 699 249 697 225 c 1
 791 225 l 1
 797 249 800 274 800 300 c 0
 800 326 797 351 791 375 c 1
 697 375 l 1
681 475 m 1
 744 475 l 1
 721 507 691 535 657 556 c 1
 667 531 674 504 681 475 c 1
681 125 m 1
 674 96 667 69 657 44 c 1
 691 65 721 93 744 125 c 1
 681 125 l 1
319 125 m 1
 256 125 l 1
 279 93 309 65 343 44 c 1
 333 69 326 96 319 125 c 1
303 225 m 1
 301 249 300 275 300 300 c 0
 300 325 301 351 303 375 c 1
 209 375 l 1
 203 351 200 326 200 300 c 0
 200 274 203 249 209 225 c 1
 303 225 l 1
319 475 m 1
 326 504 333 531 343 556 c 1
 309 535 279 507 256 475 c 1
 319 475 l 1
578 125 m 1
 422 125 l 1
 429 99 438 76 448 55 c 0
 464 24 485 0 500 -0 c 0
 524 0 551 52 552 55 c 0
 562 76 571 99 578 125 c 1
596 225 m 1
 596 258 598 291 598 325 c 0
 598 342 598 359 596 375 c 1
 404 375 l 1
 404 342 402 309 402 275 c 0
 402 258 402 241 404 225 c 1
 596 225 l 1
578 475 m 1
 571 501 562 524 552 545 c 0
 536 576 515 600 500 600 c 0
 476 600 449 548 448 545 c 0
 438 524 429 501 422 475 c 1
 578 475 l 1
500 700 m 0
 721 700 900 521 900 300 c 0
 900 79 721 -100 500 -100 c 0
 279 -100 100 79 100 300 c 0
 100 521 279 700 500 700 c 0
EndSplineSet
Validated: 1
EndChar

StartChar: egrave
Encoding: 232 232 21
Width: 1000
Flags: H
LayerCount: 2
Fore
SplineSet
100 -100 m 1
 100 400 l 1
 900 400 l 1
 900 -100 l 1
 100 -100 l 1
650 500 m 1
 100 500 l 1
 100 600 l 2
 100 655 145 700 200 700 c 2
 550 700 l 2
 605 700 650 655 650 600 c 1
 800 600 l 2
 855 600 900 555 900 500 c 1
 650 500 l 1
EndSplineSet
Validated: 1
EndChar

StartChar: eacute
Encoding: 233 233 22
Width: 1000
Flags: H
LayerCount: 2
Fore
SplineSet
400 500 m 1
 400 100 l 1
 700 300 l 1
 400 500 l 1
200 700 m 2
 800 700 l 2
 855 700 900 655 900 600 c 2
 900 0 l 2
 900 -55 855 -100 800 -100 c 2
 200 -100 l 2
 145 -100 100 -55 100 0 c 2
 100 600 l 2
 100 655 145 700 200 700 c 2
EndSplineSet
Validated: 1
EndChar

StartChar: ecircumflex
Encoding: 234 234 23
Width: 1000
Flags: H
LayerCount: 2
Fore
SplineSet
500 400 m 0
 500 455 545 500 600 500 c 0
 655 500 700 455 700 400 c 0
 700 345 655 300 600 300 c 0
 545 300 500 345 500 400 c 0
250 600 m 2
 222 600 200 578 200 550 c 2
 200 250 l 1
 300 350 l 1
 450 150 l 1
 600 200 l 1
 800 160 l 1
 800 550 l 2
 800 578 778 600 750 600 c 2
 250 600 l 2
200 700 m 2
 800 700 l 2
 855 700 900 655 900 600 c 2
 900 0 l 2
 900 -55 855 -100 800 -100 c 2
 200 -100 l 2
 145 -100 100 -55 100 0 c 2
 100 600 l 2
 100 655 145 700 200 700 c 2
EndSplineSet
Validated: 1
EndChar

StartChar: edieresis
Encoding: 235 235 24
Width: 1000
Flags: H
LayerCount: 2
Fore
SplineSet
725 258 m 4
 702 258 682 238 682 215 c 4
 682 192 702 172 725 172 c 4
 748 172 768 192 768 215 c 4
 768 238 748 258 725 258 c 4
275 281 m 5
 238 244 l 5
 238 169 l 5
 312 169 l 5
 312 244 l 5
 275 281 l 5
331 338 m 5
 294 300 l 5
 331 262 l 5
 406 262 l 5
 406 338 l 5
 331 338 l 5
144 338 m 5
 144 262 l 5
 219 262 l 5
 256 300 l 5
 219 338 l 5
 144 338 l 5
810 342 m 4
 787 342 768 323 768 300 c 4
 768 277 787 258 810 258 c 4
 833 258 852 277 852 300 c 4
 852 323 833 342 810 342 c 4
640 342 m 4
 617 342 598 323 598 300 c 4
 598 277 617 258 640 258 c 4
 663 258 682 277 682 300 c 4
 682 323 663 342 640 342 c 4
725 428 m 4
 702 428 682 408 682 385 c 4
 682 362 702 342 725 342 c 4
 748 342 768 362 768 385 c 4
 768 408 748 428 725 428 c 4
238 431 m 5
 238 356 l 5
 275 319 l 5
 312 356 l 5
 312 431 l 5
 238 431 l 5
275 475 m 6
 725 475 l 6
 822 475 900 397 900 300 c 4
 900 203 822 125 725 125 c 4
 655 125 595 166 567 225 c 5
 567 225 508 225 468 225 c 4
 448 225 433 225 433 225 c 4
 405 166 345 125 275 125 c 4
 178 125 100 203 100 300 c 4
 100 397 178 475 275 475 c 6
EndSplineSet
Validated: 1
EndChar

StartChar: igrave
Encoding: 236 236 25
Width: 1000
Flags: H
LayerCount: 2
Fore
SplineSet
450 400 m 6
 422 400 400 378 400 350 c 6
 400 250 l 6
 400 222 422 200 450 200 c 6
 550 200 l 6
 578 200 600 222 600 250 c 6
 600 350 l 6
 600 378 578 400 550 400 c 6
 450 400 l 6
200 700 m 6
 800 700 l 6
 855 700 900 655 900 600 c 6
 900 0 l 6
 900 -55 855 -100 800 -100 c 6
 200 -100 l 6
 145 -100 100 -55 100 0 c 6
 100 600 l 6
 100 655 145 700 200 700 c 6
300 429 m 5
 200 529 l 5
 200 71 l 5
 300 171 l 5
 300 429 l 5
629 100 m 5
 371 100 l 5
 271 0 l 5
 729 0 l 5
 629 100 l 5
700 429 m 5
 700 171 l 5
 800 71 l 5
 800 529 l 5
 700 429 l 5
371 500 m 5
 629 500 l 5
 729 600 l 5
 271 600 l 5
 371 500 l 5
EndSplineSet
Validated: 1
EndChar

StartChar: Idieresis
Encoding: 207 207 26
Width: 1000
Flags: H
LayerCount: 2
Fore
SplineSet
400 350 m 2
 709 350 l 1
 645 415 l 2
 636 424 630 436 630 450 c 0
 630 480 655 500 681 500 c 0
 693 500 705 495 715 485 c 2
 901 300 l 1
 715 115 l 2
 706 106 694 100 680 100 c 0
 650 100 630 125 630 151 c 0
 630 163 635 175 645 185 c 2
 709 250 l 1
 400 250 l 2
 372 250 350 272 350 300 c 0
 350 328 372 350 400 350 c 2
200 700 m 2
 500 700 l 2
 555 700 600 655 600 600 c 2
 600 400 l 1
 500 400 l 1
 500 550 l 2
 500 578 478 600 450 600 c 2
 250 600 l 2
 222 600 200 578 200 550 c 2
 200 50 l 2
 200 22 222 0 250 0 c 2
 450 0 l 2
 478 0 500 22 500 50 c 2
 500 200 l 1
 600 200 l 1
 600 0 l 2
 600 -55 555 -100 500 -100 c 2
 200 -100 l 2
 145 -100 100 -55 100 0 c 2
 100 600 l 2
 100 655 145 700 200 700 c 2
EndSplineSet
Validated: 1
EndChar

StartChar: Icircumflex
Encoding: 206 206 27
Width: 1000
Flags: H
LayerCount: 2
Fore
SplineSet
700 500 m 6
 700 400 l 5
 755 400 800 355 800 300 c 6
 800 0 l 6
 800 -55 755 -100 700 -100 c 6
 300 -100 l 6
 245 -100 200 -55 200 0 c 6
 200 300 l 6
 200 355 245 400 300 400 c 5
 300 500 l 6
 300 610 390 700 500 700 c 4
 610 700 700 610 700 500 c 6
600 500 m 6
 600 556 556 600 500 600 c 4
 444 600 400 556 400 500 c 6
 400 400 l 5
 600 400 l 5
 600 500 l 6
EndSplineSet
Validated: 1
EndChar

StartChar: Iacute
Encoding: 205 205 28
Width: 1000
Flags: H
LayerCount: 2
Fore
SplineSet
773 272 m 0
 776 272 779 272 782 272 c 0
 788 272 794 271 799 269 c 0
 818 262 832 244 832 222 c 0
 832 216 831 210 829 205 c 0
 780 70 654 -21 511 -25 c 0
 507 -25 504 -25 500 -25 c 0
 404 -25 315 14 250 80 c 1
 250 9 250 -75 250 -75 c 0
 250 -103 228 -125 200 -125 c 0
 172 -125 150 -103 150 -75 c 2
 150 275 l 1
 450 275 l 2
 478 275 500 253 500 225 c 0
 500 197 478 175 450 175 c 2
 300 175 l 1
 347 113 420 75 500 75 c 0
 503 75 505 75 508 75 c 0
 610 78 700 143 735 239 c 0
 741 256 755 269 773 272 c 0
490 675 m 0
 493 675 497 675 500 675 c 0
 596 675 685 636 750 570 c 1
 750 622 750 675 750 675 c 2
 750 703 772 725 800 725 c 0
 828 725 850 703 850 675 c 2
 850 375 l 1
 550 375 l 2
 522 375 500 397 500 425 c 0
 500 453 522 475 550 475 c 2
 700 475 l 1
 653 537 580 575 500 575 c 0
 498 575 495 575 493 575 c 0
 390 572 300 507 265 411 c 0
 258 392 240 378 218 378 c 0
 212 378 206 379 201 381 c 0
 182 388 168 406 168 428 c 0
 168 434 169 440 171 445 c 0
 220 580 347 671 490 675 c 0
EndSplineSet
Validated: 1
EndChar

StartChar: Igrave
Encoding: 204 204 29
Width: 1000
Flags: H
LayerCount: 2
Fore
SplineSet
763 156 m 5
 741 152 720 150 699 150 c 4
 508 150 350 308 350 499 c 4
 350 520 352 541 356 563 c 5
 263 512 200 413 200 300 c 4
 200 134 334 0 500 0 c 4
 613 0 712 63 763 156 c 5
893 228 m 4
 859 42 696 -100 500 -100 c 4
 279 -100 100 79 100 300 c 4
 100 496 242 659 428 693 c 4
 431 694 434 694 437 694 c 4
 465 694 487 670 487 644 c 4
 487 636 485 628 481 620 c 4
 461 584 450 543 450 500 c 4
 450 362 562 250 700 250 c 4
 743 250 784 261 820 281 c 4
 828 285 836 287 844 287 c 4
 870 287 894 265 894 237 c 4
 894 234 894 231 893 228 c 4
EndSplineSet
Validated: 1
EndChar

StartChar: Edieresis
Encoding: 203 203 30
Width: 1000
Flags: H
LayerCount: 2
Fore
SplineSet
240 596 m 4
 244 597 249 597 253 597 c 4
 267 597 279 592 288 583 c 6
 362 508 l 5
 388 525 418 538 450 545 c 5
 450 650 l 6
 450 678 472 700 500 700 c 4
 528 700 550 678 550 650 c 6
 550 545 l 5
 582 538 612 525 638 508 c 5
 712 583 l 6
 718 589 726 594 735 596 c 4
 739 597 743 597 747 597 c 4
 761 597 774 592 783 583 c 4
 792 574 797 561 797 547 c 4
 797 533 792 521 783 512 c 6
 708 438 l 5
 725 412 738 382 745 350 c 5
 850 350 l 6
 878 350 900 328 900 300 c 4
 900 272 878 250 850 250 c 6
 745 250 l 5
 738 218 725 188 708 162 c 5
 783 88 l 6
 792 79 797 67 797 53 c 4
 797 39 792 26 783 17 c 4
 774 8 761 3 747 3 c 4
 733 3 721 8 712 17 c 6
 638 92 l 5
 612 75 582 62 550 55 c 5
 550 -50 l 6
 550 -78 528 -100 500 -100 c 4
 472 -100 450 -78 450 -50 c 6
 450 55 l 5
 418 62 388 75 362 92 c 5
 288 17 l 6
 279 8 267 3 253 3 c 4
 239 3 226 8 217 17 c 4
 208 26 203 39 203 53 c 4
 203 67 208 79 217 88 c 6
 292 162 l 5
 275 188 262 218 255 250 c 5
 150 250 l 6
 122 250 100 272 100 300 c 4
 100 328 122 350 150 350 c 6
 255 350 l 5
 262 382 275 412 292 438 c 5
 217 512 l 6
 208 521 203 533 203 547 c 4
 203 561 208 574 217 583 c 4
 223 589 231 594 240 596 c 4
610 403 m 4
 609 404 607 405 606 406 c 4
 605 407 604 409 603 410 c 4
 576 435 540 450 500 450 c 4
 460 450 424 435 397 410 c 4
 396 409 395 407 394 406 c 4
 393 405 391 404 390 403 c 4
 365 376 350 340 350 300 c 4
 350 260 365 224 390 197 c 4
 391 196 393 195 394 194 c 4
 395 193 396 191 397 190 c 4
 424 165 460 150 500 150 c 4
 540 150 576 165 603 190 c 4
 604 191 605 193 606 194 c 4
 607 195 609 196 610 197 c 4
 635 224 650 260 650 300 c 4
 650 340 635 376 610 403 c 4
EndSplineSet
Validated: 1
EndChar

StartChar: AE
Encoding: 198 198 31
Width: 1000
Flags: H
LayerCount: 2
Fore
SplineSet
425 600 m 4
 300 600 200 500 200 375 c 4
 200 250 300 150 425 150 c 4
 550 150 650 250 650 375 c 4
 650 500 550 600 425 600 c 4
425 700 m 4
 604 700 750 554 750 375 c 4
 750 304 726 237 687 183 c 5
 885 -15 l 6
 894 -24 900 -36 900 -50 c 4
 900 -64 894 -76 885 -85 c 4
 876 -94 864 -100 850 -100 c 4
 836 -100 824 -94 815 -85 c 6
 617 113 l 5
 563 74 496 50 425 50 c 5
 246 50 100 196 100 375 c 4
 100 554 246 700 425 700 c 4
EndSplineSet
Validated: 1
EndChar

StartChar: atilde
Encoding: 227 227 32
Width: 500
Flags: HW
LayerCount: 2
Fore
SplineSet
400 701 m 5
 400 -50 l 6
 400 -78 378 -100 350 -100 c 4
 322 -100 300 -78 300 -50 c 6
 300 460 l 5
 185 345 l 6
 175 335 163 330 150 330 c 4
 137 330 125 335 115 345 c 4
 105 355 100 367 100 380 c 4
 100 393 105 406 115 416 c 6
 400 701 l 5
EndSplineSet
Validated: 1
EndChar

StartChar: adieresis
Encoding: 228 228 33
Width: 500
Flags: HW
LayerCount: 2
Fore
SplineSet
150 700 m 4
 178 700 200 678 200 650 c 6
 200 141 l 5
 315 255 l 5
 324 264 336 270 350 270 c 4
 364 270 376 264 385 255 c 4
 394 246 400 234 400 220 c 4
 400 206 394 194 385 185 c 6
 100 -101 l 5
 100 650 l 5
 100 678 122 700 150 700 c 4
EndSplineSet
Validated: 1
EndChar

StartChar: Ccedilla
Encoding: 199 199 34
Width: 1000
Flags: H
LayerCount: 2
Fore
SplineSet
500 625 m 4
 576 625 652 605 719 567 c 4
 831 503 900 392 900 274 c 4
 900 251 897 228 892 205 c 4
 887 185 871 170 850 167 c 5
 850 75 l 6
 850 20 805 -25 750 -25 c 6
 700 -25 l 5
 700 325 l 5
 750 325 l 6
 767 325 783 320 797 313 c 5
 785 379 741 440 670 481 c 4
 619 510 559 524 500 524 c 4
 441 524 381 510 330 481 c 4
 259 440 215 379 203 313 c 5
 217 320 233 325 250 325 c 6
 300 325 l 5
 300 -25 l 5
 250 -25 l 6
 195 -25 150 20 150 75 c 6
 150 167 l 5
 129 170 113 185 108 205 c 4
 103 228 100 251 100 274 c 4
 100 392 169 503 281 567 c 4
 348 605 424 625 500 625 c 4
587 298 m 4
 591 299 596 300 600 300 c 4
 614 300 626 294 635 285 c 4
 644 276 650 264 650 250 c 4
 650 236 644 223 635 214 c 6
 571 150 l 5
 635 85 l 6
 644 76 650 64 650 50 c 4
 650 36 644 23 635 14 c 4
 626 5 614 0 600 0 c 4
 586 0 574 5 565 14 c 6
 500 79 l 5
 435 14 l 6
 426 5 414 0 400 0 c 4
 386 0 374 5 365 14 c 4
 356 23 350 36 350 50 c 4
 350 64 356 76 365 85 c 6
 429 150 l 5
 365 214 l 6
 356 223 350 236 350 250 c 4
 350 264 356 276 365 285 c 4
 371 291 378 296 387 298 c 4
 391 299 396 300 400 300 c 4
 414 300 426 294 435 285 c 6
 500 220 l 5
 565 285 l 6
 571 291 578 296 587 298 c 4
EndSplineSet
Validated: 1
EndChar

StartChar: aring
Encoding: 229 229 35
Width: 1000
Flags: H
LayerCount: 2
Fore
SplineSet
600 0 m 1
 600 -37 580 -70 550 -87 c 0
 535 -95 518 -100 500 -100 c 0
 482 -100 465 -95 450 -87 c 0
 420 -70 400 -37 400 0 c 1
 400 0 411 0 426 0 c 0
 456 0 500 0 500 0 c 1
 600 0 l 1
450 700 m 1
 550 700 l 1
 550 645 l 1
 664 622 750 521 750 400 c 2
 750 300 l 2
 750 200 850 150 850 100 c 0
 850 50 800 50 750 50 c 2
 250 50 l 2
 200 50 150 50 150 100 c 0
 150 150 250 200 250 300 c 2
 250 400 l 2
 250 521 336 622 450 645 c 1
 450 700 l 1
EndSplineSet
Validated: 1
EndChar

StartChar: one
Encoding: 49 49 36
Width: 800
Flags: HW
LayerCount: 2
Fore
SplineSet
250 700 m 5
 400 700 l 6
 428 700 450 678 450 650 c 6
 450 -100 l 5
 350 -100 l 5
 350 600 l 5
 250 600 l 5
 250 700 l 5
EndSplineSet
Validated: 1
EndChar

StartChar: two
Encoding: 50 50 37
Width: 800
Flags: HW
LayerCount: 2
Fore
SplineSet
250 700 m 5
 400 700 l 6
 428 700 450 678 450 650 c 4
 450 592 485 452 534 317 c 4
 583 182 646 46 691 -22 c 5
 608 -78 l 5
 553 4 491 143 440 283 c 4
 425 323 412 363 400 402 c 5
 388 363 374 323 359 283 c 4
 308 143 246 4 191 -78 c 5
 108 -22 l 5
 153 46 216 182 265 317 c 4
 303 422 333 530 344 600 c 5
 250 600 l 5
 250 700 l 5
EndSplineSet
Validated: 1
EndChar

StartChar: three
Encoding: 51 51 38
Width: 800
Flags: HW
LayerCount: 2
Fore
SplineSet
656 700 m 0
 681 697 700 676 700 650 c 0
 700 644 699 638 697 633 c 2
 471 0 l 1
 700 0 l 1
 700 -100 l 1
 100 -100 l 1
 100 0 l 1
 365 0 l 1
 534 473 l 1
 433 386 351 336 280 320 c 0
 267 317 254 316 241 316 c 0
 202 316 165 329 141 357 c 0
 109 394 100 444 100 500 c 1
 200 500 l 1
 200 456 210 431 217 423 c 0
 221 418 224 414 234 414 c 0
 239 414 247 415 258 417 c 0
 317 431 443 513 615 685 c 0
 624 694 636 700 650 700 c 0
 652 700 654 700 656 700 c 0
EndSplineSet
Validated: 1
EndChar

StartChar: four
Encoding: 52 52 39
Width: 800
Flags: HW
LayerCount: 2
Fore
SplineSet
350 700 m 2
 650 700 l 2
 678 700 700 678 700 650 c 0
 700 634 692 620 681 611 c 2
 681 611 558 513 435 390 c 0
 374 329 313 261 269 199 c 0
 225 137 200 79 200 50 c 0
 200 20 228 0 250 0 c 0
 258 0 296 9 325 21 c 0
 354 33 378 45 378 45 c 1
 422 -45 l 1
 422 -45 395 -58 362 -71 c 0
 329 -84 292 -100 250 -100 c 0
 172 -100 100 -37 100 50 c 0
 100 121 138 188 187 257 c 0
 236 326 301 396 365 460 c 0
 419 514 470 561 514 600 c 1
 400 600 l 1
 400 500 l 1
 300 500 l 1
 300 650 l 2
 300 678 322 700 350 700 c 2
EndSplineSet
Validated: 1
EndChar

StartChar: five
Encoding: 53 53 40
Width: 800
Flags: HW
LayerCount: 2
Fore
SplineSet
250 700 m 2
 550 700 l 2
 578 700 600 678 600 650 c 0
 600 635 593 621 583 612 c 2
 450 496 l 1
 450 350 l 1
 700 350 l 1
 700 250 l 1
 450 250 l 1
 450 -100 l 1
 350 -100 l 1
 350 250 l 1
 150 250 l 2
 122 250 100 272 100 300 c 0
 100 315 107 329 117 338 c 2
 417 600 l 1
 300 600 l 1
 300 500 l 1
 200 500 l 1
 200 650 l 2
 200 678 222 700 250 700 c 2
350 350 m 1
 350 409 l 1
 283 350 l 1
 350 350 l 1
EndSplineSet
Validated: 1
EndChar

StartChar: six
Encoding: 54 54 41
Width: 800
Flags: HW
LayerCount: 2
Fore
SplineSet
500 700 m 5
 650 700 l 6
 678 700 700 678 700 650 c 4
 700 558 660 423 609 283 c 4
 558 143 496 4 441 -78 c 4
 432 -91 417 -100 400 -100 c 4
 372 -100 350 -78 350 -50 c 4
 350 8 314 148 265 283 c 4
 216 418 153 554 108 622 c 5
 191 678 l 5
 246 596 308 457 359 317 c 4
 386 243 410 170 426 104 c 5
 456 168 488 242 515 317 c 4
 553 422 583 530 594 600 c 5
 500 600 l 5
 500 700 l 5
EndSplineSet
Validated: 1
EndChar

StartChar: seven
Encoding: 55 55 42
Width: 800
Flags: HW
LayerCount: 2
Fore
SplineSet
250 700 m 2
 250 700 383 700 472 700 c 0
 516 700 550 700 550 700 c 0
 578 700 600 678 600 650 c 0
 600 641 597 632 593 625 c 2
 236 0 l 1
 700 0 l 1
 700 -100 l 1
 700 -100 456 -100 293 -100 c 0
 212 -100 150 -100 150 -100 c 0
 122 -100 100 -78 100 -50 c 0
 100 -41 103 -32 107 -25 c 2
 464 600 l 1
 300 600 l 1
 300 500 l 1
 200 500 l 1
 200 650 l 2
 200 678 222 700 250 700 c 2
EndSplineSet
Validated: 1
EndChar

StartChar: eight
Encoding: 56 56 43
Width: 800
Flags: HW
LayerCount: 2
Fore
SplineSet
250 700 m 6
 550 700 l 6
 578 700 600 678 600 650 c 4
 600 630 588 613 572 605 c 6
 308 473 l 5
 401 455 479 435 540 412 c 4
 586 395 623 376 652 353 c 4
 681 330 703 298 706 260 c 4
 706 257 706 255 706 252 c 4
 706 218 690 186 667 159 c 4
 642 130 607 104 563 77 c 4
 474 23 344 -34 167 -97 c 5
 133 -3 l 5
 306 59 433 114 511 162 c 4
 550 186 577 208 591 225 c 4
 604 240 606 248 606 252 c 4
 606 255 605 262 589 275 c 4
 573 288 545 303 505 318 c 4
 426 348 303 376 142 401 c 4
 118 405 100 425 100 450 c 4
 100 470 112 487 128 495 c 6
 200 531 l 5
 200 531 200 584 200 619 c 4
 200 637 200 650 200 650 c 6
 200 678 222 700 250 700 c 6
300 600 m 5
 300 581 l 5
 338 600 l 5
 300 600 l 5
EndSplineSet
Validated: 1
EndChar

StartChar: nine
Encoding: 57 57 44
Width: 800
Flags: HW
LayerCount: 2
Fore
SplineSet
150 700 m 2
 150 700 372 700 520 700 c 0
 594 700 650 700 650 700 c 0
 678 700 700 678 700 650 c 0
 700 639 697 629 691 621 c 2
 191 -79 l 1
 109 -21 l 1
 329 287 l 1
 222 358 l 1
 278 442 l 1
 387 368 l 1
 553 600 l 1
 200 600 l 1
 200 500 l 1
 100 500 l 1
 100 650 l 2
 100 678 122 700 150 700 c 2
EndSplineSet
Validated: 1
EndChar

StartChar: zero
Encoding: 48 48 45
Width: 800
Flags: HW
LayerCount: 2
Fore
SplineSet
400 570 m 5
 377 540 347 499 317 454 c 4
 256 363 200 247 200 200 c 4
 200 136 220 88 254 54 c 4
 288 20 336 0 400 0 c 4
 464 0 512 20 546 54 c 4
 580 88 600 136 600 200 c 4
 600 247 544 363 483 454 c 4
 453 499 423 540 400 570 c 5
250 700 m 5
 250 700 317 700 361 700 c 4
 383 700 400 700 400 700 c 4
 415 700 429 693 438 682 c 5
 438 682 l 5
 438 682 503 605 567 509 c 4
 631 413 700 303 700 200 c 4
 700 114 671 37 617 -17 c 4
 563 -71 486 -100 400 -100 c 4
 314 -100 237 -71 183 -17 c 4
 129 37 100 114 100 200 c 4
 100 303 169 413 233 509 c 4
 256 543 278 573 298 600 c 5
 250 600 l 5
 250 700 l 5
EndSplineSet
Validated: 1
EndChar

StartChar: colon
Encoding: 58 58 46
Width: 350
Flags: HW
LayerCount: 2
Fore
SplineSet
100 600 m 5
 250 600 l 5
 250 500 l 5
 100 500 l 5
 100 600 l 5
100 350 m 5
 250 350 l 5
 250 250 l 5
 100 250 l 5
 100 350 l 5
100 100 m 5
 250 100 l 5
 250 0 l 5
 100 0 l 5
 100 100 l 5
EndSplineSet
Validated: 1
EndChar

StartChar: Ograve
Encoding: 210 210 48
Width: 800
Flags: HW
LayerCount: 2
Fore
SplineSet
475 875 m 5
 550 800 l 5
 475 725 l 5
 400 800 l 5
 475 875 l 5
275 875 m 5
 350 800 l 5
 275 725 l 5
 200 800 l 5
 275 875 l 5
250 225 m 5
 325 150 l 5
 250 75 l 5
 175 150 l 5
 250 225 l 5
375 750 m 5
 450 675 l 5
 375 600 l 5
 300 675 l 5
 375 750 l 5
656 700 m 4
 681 697 700 676 700 650 c 4
 700 644 699 638 697 633 c 6
 471 0 l 5
 700 0 l 5
 700 -100 l 5
 100 -100 l 5
 100 0 l 5
 365 0 l 5
 534 473 l 5
 433 386 351 336 280 320 c 4
 267 317 254 316 241 316 c 4
 202 316 165 329 141 357 c 4
 109 394 100 444 100 500 c 5
 200 500 l 5
 200 456 210 430 217 422 c 4
 221 417 224 414 234 414 c 4
 239 414 247 415 258 417 c 4
 317 431 443 513 615 685 c 4
 624 694 636 700 650 700 c 4
 652 700 654 700 656 700 c 4
EndSplineSet
Validated: 1
EndChar

StartChar: Oacute
Encoding: 211 211 49
Width: 800
Flags: HW
LayerCount: 2
Fore
SplineSet
400 875 m 5
 475 800 l 5
 400 725 l 5
 325 800 l 5
 400 875 l 5
639 699 m 4
 643 700 646 700 650 700 c 4
 678 700 700 678 700 650 c 6
 700 -100 l 5
 600 -100 l 5
 600 248 l 5
 587 213 573 178 558 147 c 4
 525 78 488 20 447 -24 c 4
 406 -68 357 -100 300 -100 c 4
 255 -100 210 -79 170 -38 c 4
 130 3 100 68 100 150 c 5
 200 150 l 5
 200 91 219 55 242 32 c 4
 265 9 295 0 300 0 c 4
 318 0 343 11 374 44 c 4
 405 77 437 127 467 190 c 4
 527 315 577 487 601 657 c 4
 604 677 619 694 639 699 c 4
EndSplineSet
Validated: 1
EndChar

StartChar: Ocircumflex
Encoding: 212 212 50
Width: 800
Flags: HW
LayerCount: 2
Fore
SplineSet
355 696 m 1
 445 653 l 1
 372 499 l 1
 388 499 403 499 419 499 c 0
 540 499 650 500 650 500 c 0
 678 500 700 477 700 449 c 0
 700 441 698 435 695 428 c 2
 586 200 l 1
 700 200 l 1
 700 100 l 1
 700 100 630 100 539 100 c 1
 491 0 l 1
 700 0 l 1
 700 -100 l 1
 100 -100 l 1
 100 0 l 1
 380 0 l 1
 428 100 l 1
 412 100 397 100 381 100 c 0
 260 100 150 100 150 100 c 0
 122 100 100 122 100 150 c 0
 100 158 102 164 105 171 c 2
 214 399 l 1
 100 399 l 1
 100 500 l 1
 100 500 170 499 261 499 c 1
 355 696 l 1
476 200 m 1
 571 399 l 1
 324 399 l 1
 229 200 l 1
 476 200 l 1
EndSplineSet
Validated: 1
EndChar

StartChar: Otilde
Encoding: 213 213 51
Width: 800
Flags: HW
LayerCount: 2
Fore
SplineSet
250 525 m 1
 325 450 l 1
 250 375 l 1
 175 450 l 1
 250 525 l 1
550 700 m 0
 628 700 700 637 700 550 c 0
 700 479 662 412 613 343 c 0
 564 274 499 204 435 140 c 0
 381 86 330 39 286 0 c 1
 400 0 l 1
 400 100 l 1
 500 100 l 1
 500 100 500 33 500 -11 c 0
 500 -33 500 -50 500 -50 c 2
 500 -78 478 -100 450 -100 c 2
 450 -100 317 -100 228 -100 c 0
 184 -100 150 -100 150 -100 c 2
 122 -100 100 -78 100 -50 c 0
 100 -34 108 -20 119 -11 c 2
 119 -11 242 87 365 210 c 0
 426 271 487 339 531 401 c 0
 575 463 600 521 600 550 c 0
 600 580 572 600 550 600 c 0
 542 600 504 591 475 579 c 0
 446 567 422 555 422 555 c 1
 378 645 l 1
 378 645 405 658 438 671 c 0
 471 684 508 700 550 700 c 0
EndSplineSet
Validated: 1
EndChar

StartChar: Odieresis
Encoding: 214 214 52
Width: 800
Flags: HW
LayerCount: 2
Fore
SplineSet
400 -125 m 1
 475 -200 l 1
 400 -275 l 1
 325 -200 l 1
 400 -125 l 1
660 699 m 0
 683 694 700 674 700 650 c 0
 700 639 697 629 691 621 c 2
 247 0 l 1
 700 0 l 1
 700 -100 l 1
 700 -100 456 -100 293 -100 c 0
 212 -100 150 -100 150 -100 c 0
 122 -100 100 -78 100 -50 c 0
 100 -39 103 -29 109 -21 c 2
 384 364 l 1
 347 343 312 327 280 320 c 0
 267 317 254 316 241 316 c 0
 202 316 165 329 141 357 c 0
 109 394 100 444 100 500 c 1
 200 500 l 1
 200 456 210 431 217 423 c 0
 221 418 224 414 234 414 c 0
 239 414 247 416 258 418 c 0
 317 432 443 513 615 685 c 0
 624 694 636 700 650 700 c 0
 654 700 657 700 660 699 c 0
EndSplineSet
Validated: 1
EndChar

StartChar: Oslash
Encoding: 216 216 53
Width: 800
Flags: HW
LayerCount: 2
Fore
SplineSet
350 700 m 1
 450 700 l 1
 450 350 l 1
 472 350 l 2
 516 350 550 350 550 350 c 2
 578 350 600 328 600 300 c 0
 600 285 593 271 583 262 c 2
 450 146 l 1
 450 0 l 1
 700 0 l 1
 700 -100 l 1
 700 -100 456 -100 293 -100 c 0
 212 -100 150 -100 150 -100 c 2
 122 -100 100 -78 100 -50 c 0
 100 -35 107 -21 117 -12 c 2
 350 191 l 1
 350 250 l 1
 300 250 l 1
 300 150 l 1
 200 150 l 1
 200 300 l 2
 200 328 222 350 250 350 c 2
 350 350 l 1
 350 700 l 1
350 0 m 1
 350 59 l 1
 283 0 l 1
 350 0 l 1
EndSplineSet
Validated: 1
EndChar

StartChar: Eth
Encoding: 208 208 54
Width: 1000
Flags: H
LayerCount: 2
Fore
SplineSet
219 402 m 5
 500 121 l 5
 780 402 l 5
 698 468 599 500 500 500 c 4
 401 500 301 468 219 402 c 5
464 15 m 6
 111 368 l 6
 101 378 96 391 96 404 c 4
 96 417 101 429 111 439 c 4
 219 547 359 600 500 600 c 4
 641 600 782 546 889 439 c 4
 899 429 903 417 903 404 c 4
 903 391 899 378 889 368 c 6
 535 15 l 6
 525 5 513 0 500 0 c 4
 487 0 474 5 464 15 c 6
EndSplineSet
Validated: 1
EndChar

StartChar: Ntilde
Encoding: 209 209 55
Width: 1000
Flags: HW
LayerCount: 2
Fore
SplineSet
464 15 m 2
 111 368 l 2
 101 378 96 391 96 404 c 0
 96 417 101 429 111 439 c 0
 219 547 359 600 500 600 c 0
 641 600 782 546 889 439 c 0
 899 429 903 417 903 404 c 0
 903 391 899 378 889 368 c 6
 535 15 l 6
 525 5 513 0 500 0 c 0
 487 0 474 5 464 15 c 2
EndSplineSet
EndChar
